<?xml version="1.0" encoding="UTF-8" standalone="no"?>
<svg
   xmlns:dc="http://purl.org/dc/elements/1.1/"
   xmlns:cc="http://creativecommons.org/ns#"
   xmlns:rdf="http://www.w3.org/1999/02/22-rdf-syntax-ns#"
   xmlns:svg="http://www.w3.org/2000/svg"
   xmlns="http://www.w3.org/2000/svg"
   xmlns:sodipodi="http://sodipodi.sourceforge.net/DTD/sodipodi-0.dtd"
   xmlns:inkscape="http://www.inkscape.org/namespaces/inkscape"
   inkscape:version="1.0beta2 (2b71d25, 2019-12-03)"
   sodipodi:docname="virus.svg"
   xml:space="preserve"
   width="100px"
   viewBox="0 0 500 500"
   version="1.1"
   id="Layer_1"
   height="100px"
   enable-background="new 0 0 500 500"><metadata
     id="metadata62"><rdf:RDF><cc:Work
         rdf:about=""><dc:format>image/svg+xml</dc:format><dc:type
           rdf:resource="http://purl.org/dc/dcmitype/StillImage" /></cc:Work></rdf:RDF></metadata><defs
     id="defs60" /><sodipodi:namedview
     inkscape:current-layer="Layer_1"
     inkscape:window-maximized="1"
     inkscape:window-y="23"
     inkscape:window-x="0"
     inkscape:cy="214.76689"
     inkscape:cx="273.89262"
     inkscape:zoom="0.88199486"
     showgrid="false"
     id="namedview58"
     inkscape:window-height="705"
     inkscape:window-width="1280"
     inkscape:pageshadow="2"
     inkscape:pageopacity="0"
     guidetolerance="10"
     gridtolerance="10"
     objecttolerance="10"
     borderopacity="1"
     inkscape:document-rotation="0"
     bordercolor="#666666"
     pagecolor="#ffffff" /><path
     style="stroke-width:1.16881"
     inkscape:connector-curvature="0"
     clip-rule="evenodd"
     d="m 250.94945,1.3993271 c -14.65212,0 -26.54702,11.8948879 -26.54702,26.5493149 v 38.971336 c -14.76196,2.12605 -28.99096,6.056727 -42.47776,11.36659 L 162.49099,44.515226 c -7.43124,-12.637076 -23.5724,-16.993197 -36.31586,-9.667153 -12.74578,7.328382 -17.10191,23.577055 -9.76884,36.214136 l 19.53886,33.873021 c -11.47062,9.13185 -21.87647,19.53767 -31.00832,31.00829 L 71.062604,116.40585 c -12.635921,-7.32605 -28.884608,-2.97695 -36.214167,9.76883 -7.326051,12.74344 -2.969925,28.88574 9.667163,36.31698 l 33.770201,19.53533 C 72.975933,195.41211 69.04642,209.63992 66.92037,224.40188 H 27.947829 c -14.654435,0 -26.5469967,11.89489 -26.5469967,26.54697 0,14.65326 11.8925617,26.54933 26.5469967,26.54933 h 38.971372 c 2.12605,14.76546 6.055564,28.99327 11.365431,42.37253 l -33.7702,19.53885 c -12.637089,7.43475 -16.993215,23.57004 -9.667163,36.31582 7.329558,12.73993 23.578246,17.08553 36.214166,9.76533 l 33.874225,-19.53768 c 9.13185,11.46828 19.5377,21.88346 31.00832,31.00595 l -19.53887,33.86952 c -7.33306,12.64291 -2.97576,28.8951 9.76885,36.21295 12.74345,7.33306 28.88461,2.97928 36.31586,-9.6648 l 19.43251,-33.76549 c 13.4868,5.30985 27.71579,9.23937 42.47778,11.36541 v 38.97367 c 0,14.65326 11.8949,26.54582 26.547,26.54582 14.65326,0 26.54934,-11.89256 26.54934,-26.54582 v -38.97367 c 14.76547,-2.12488 28.99448,-6.05556 42.47544,-11.36541 l 19.436,33.76549 c 7.4219,12.64291 23.57008,16.99786 36.31586,9.6648 12.74112,-7.31903 17.08554,-23.57004 9.76535,-36.21295 l -19.53654,-33.86952 c 11.46712,-9.12365 21.88231,-19.53884 31.00481,-31.00595 l 33.86956,19.53768 c 12.64294,7.3202 28.89513,2.9746 36.21417,-9.76533 7.33306,-12.74578 2.97927,-28.88107 -9.666,-36.31582 l -33.76552,-19.53885 c 5.30987,-13.37926 9.23937,-27.60707 11.36543,-42.37253 h 38.97488 c 14.6521,0 26.54466,-11.89724 26.54466,-26.54933 0,-14.65208 -11.89256,-26.54697 -26.54466,-26.54697 h -38.97488 c -2.12488,-14.76196 -6.05556,-28.98977 -11.36543,-42.37489 l 33.76552,-19.53533 c 12.64411,-7.43124 16.99906,-23.57354 9.666,-36.31698 -7.32021,-12.74578 -23.57123,-17.09488 -36.21417,-9.76883 l -33.86956,19.53767 C 387.83371,124.4729 377.41852,114.06708 365.95256,104.93523 L 385.4891,71.062209 c 7.32019,-12.637081 2.97577,-28.885754 -9.76535,-36.214136 -12.74578,-7.326044 -28.89513,-2.969923 -36.31586,9.667153 l -19.436,33.771342 c -13.48096,-5.309863 -27.70997,-9.24054 -42.47544,-11.36659 V 27.948642 c 0.002,-14.654427 -11.89373,-26.5493149 -26.547,-26.5493149 z M 181.92467,309.35385 c 0,-29.30419 23.7898,-53.09396 53.09517,-53.09396 29.30889,0 53.09517,23.78977 53.09517,53.09396 0,29.30534 -23.78628,53.09512 -53.09517,53.09512 -29.30537,-10e-4 -53.09517,-23.78978 -53.09517,-53.09512 z M 288.11501,208.47229 c 0,-20.49142 16.6753,-37.1667 37.16908,-37.1667 20.4891,0 37.1644,16.67645 37.1644,37.1667 0,20.4961 -16.6753,37.16671 -37.1644,37.16671 -20.49495,10e-4 -37.16908,-16.67061 -37.16908,-37.16671 z m -84.9497,-53.09513 c 0,-14.65442 11.89256,-26.54697 26.547,-26.54697 14.65328,0 26.547,11.89255 26.547,26.54697 0,14.6521 -11.8949,26.54816 -26.547,26.54816 -14.65444,0 -26.547,-11.8949 -26.547,-26.54816 z"
     fill="#AD3B14"
     fill-opacity="0.7"
     fill-rule="evenodd"
     id="path55" /></svg>
